<?xml version="1.0" encoding="iso-8859-1"?>
<!-- Uploaded to: SVG Repo, www.svgrepo.com, Generator: SVG Repo Mixer Tools -->
<!DOCTYPE svg PUBLIC "-//W3C//DTD SVG 1.1//EN" "http://www.w3.org/Graphics/SVG/1.1/DTD/svg11.dtd">
<svg fill="#000000" version="1.1" id="Capa_1" xmlns="http://www.w3.org/2000/svg" xmlns:xlink="http://www.w3.org/1999/xlink" 
	 viewBox="0 0 380.356 380.356" xml:space="preserve">
<g>
	<path d="M290.807,40.919c-3.088-14.637-16.073-25.624-31.628-25.624H224.73v-4.272C224.73,4.935,219.795,0,213.707,0h-47.057
		c-6.088,0-11.023,4.935-11.023,11.023v4.272h-34.448c-15.555,0-28.541,10.988-31.628,25.624
		c-38.774,1.31-69.918,33.241-69.918,72.328v194.719c0,39.916,32.475,72.391,72.391,72.391h196.313
		c39.916,0,72.391-32.475,72.391-72.391V113.247C360.725,74.16,329.581,42.23,290.807,40.919z M330.725,307.966
		c0,23.374-19.017,42.391-42.391,42.391H92.022c-23.374,0-42.391-19.017-42.391-42.391V113.247c0-22.306,17.322-40.63,39.218-42.259
		v8.063h202.658v-8.063c21.896,1.63,39.218,19.954,39.218,42.259V307.966z"/>
	<rect x="100.201" y="150.9" width="179.954" height="20"/>
	<rect x="100.201" y="184.644" width="179.954" height="20"/>
	<rect x="100.201" y="218.387" width="179.954" height="20"/>
	<rect x="100.201" y="252.129" width="179.954" height="20"/>
	<rect x="100.201" y="285.082" width="113.978" height="20"/>
</g>
</svg>